<svg height="512" viewBox="0 0 512 512" width="512" xmlns="http://www.w3.org/2000/svg"><g id="Flat"><path d="m96 80h160v144h-160z" fill="#26507a"/><path d="m480 24-20.06457 8.21618a63.11784 63.11784 0 0 0 -28.38319 23.07749 63.11781 63.11781 0 0 0 -9.66539 47.33149l1.11315 5.74901 5.749-1.11317a63.11786 63.11786 0 0 0 40.30288-26.634 63.11775 63.11775 0 0 0 10.81512-34.94579z" fill="#ad7d4d"/><path d="m446.56006 103.81006q-8.15991 13.5747-16.5 27.04-13.08033 21.16479-26.56983 42.0498-36.18016 56.01014-75.23046 110.06014-62.8799 87-132.94971 168.57007l-19.31006 22.46993 77.59009-134.12012q44.50452-76.91967 94.28-150.59985l24.91991-36.90015 27.96-41.37988 17.68994-26.18994z" fill="#2f4054"/><path d="m430.06006 130.8501q-13.08033 21.16479-26.56983 42.0498a24.71422 24.71422 0 0 1 -2.57031-1.52l-28.12988-19 27.95996-41.3799 28.12012 19c.41015.27.7998.56006 1.18994.8501z" fill="#262d43"/><path d="m381.83332 135.36994a16.97055 16.97055 0 0 1 16.97055 16.97055v33.94116a16.97054 16.97054 0 0 1 -16.97054 16.97054 16.97055 16.97055 0 0 1 -16.97055-16.97055v-33.94115a16.97055 16.97055 0 0 1 16.97055-16.97055z" fill="#eebe33" transform="matrix(.56 -.829 .829 .56 27.789 390.931)"/><path d="m400.83332 107.24522a16.97054 16.97054 0 0 1 16.97054 16.97054v33.94116a16.97055 16.97055 0 0 1 -16.97055 16.97055 16.97055 16.97055 0 0 1 -16.97055-16.97055v-33.94116a16.97055 16.97055 0 0 1 16.97055-16.97055z" fill="#2f4054" transform="matrix(.56 -.829 .829 .56 59.458 394.295)"/><path d="m145.3 24h53.4a35.10531 35.10531 0 0 1 33.3 24v40h-120v-40a35.10531 35.10531 0 0 1 33.3-24z" fill="#2f4054"/><path d="m112 224h112v32h-112z" fill="#2f4054"/><circle cx="168" cy="240" fill="#262d43" r="8"/><path d="m136 224h8v32h-8z" fill="#262d43"/><path d="m192 224h8v32h-8z" fill="#262d43"/><path d="m136 432v24h-96v-32l8-8 32-40 48 8z" fill="#396795"/><path d="m232 336h-24l-22.42-22.42-9.58-9.58h-16l-9.58 9.58-22.42 22.42h-24l2.6-7.79 5.4-16.21 7.29-21.88 8.71-26.12h80z" fill="#262d43"/><path d="m144 256v32l-5.43 8.15-10.57 15.85h-40l10.16-23.7 13.84-32.3z" fill="#396795"/><path d="m136.8999 298.6499-8.8999 13.3501h-40l10.15991-23.69995a56.39916 56.39916 0 0 1 5.84009-.30005 56.10315 56.10315 0 0 1 32.8999 10.6499z" fill="#26507a"/><path d="m88 328-40 64v24l12.8-6.4a42.93249 42.93249 0 0 1 38.4 0 42.9324 42.9324 0 0 1 19.2 19.2l1.6 3.2h16l8-72-8-24z" fill="#396795"/><path d="m144 256v32l-5.42993 8.1499a43.38007 43.38007 0 0 1 -2.57007-14.77978v-25.37012z" fill="#26507a"/><path d="m128 344a24 24 0 0 1 -48 0 24.3549 24.3549 0 0 1 .34009-4.03 23.99238 23.99238 0 0 1 12.92991-17.43 23.72657 23.72657 0 0 1 10.73-2.54 24.00765 24.00765 0 0 1 23.28 18.17993c.1499.6001.28 1.2.37988 1.82007a23.996 23.996 0 0 1 .34012 4z" fill="#396795"/><path d="m150.58008 332.35986-15.54008 3.88014-7.76 1.93994a24.00765 24.00765 0 0 0 -23.28-18.17994 23.72657 23.72657 0 0 0 -10.73 2.54l-3.58008-7.16016-7.15992-14.31978a48.03093 48.03093 0 0 1 68.05005 31.2998z" fill="#396795"/><g fill="#26507a"><path d="m128 344a24 24 0 0 1 -48 0 24.3549 24.3549 0 0 1 .34009-4.03 23.9918 23.9918 0 0 0 47.31982.03 23.996 23.996 0 0 1 .34009 4z"/><path d="m135.04 336.24-7.76 1.93994a24.00765 24.00765 0 0 0 -23.28-18.17994 23.72657 23.72657 0 0 0 -10.73 2.54l-3.58008-7.16016a31.52834 31.52834 0 0 1 14.31008-3.37984 31.93666 31.93666 0 0 1 31.04 24.24z"/><path d="m136 432v16h-20.94995a7.985 7.985 0 0 1 -7.15015-4.41992l-3.80981-7.63008a26.947 26.947 0 0 0 -36.14014-12.04l-27.94995 13.98014v-13.89014l8-8 12.8-6.3999a42.93239 42.93239 0 0 1 57.59985 19.2l1.60015 3.1999z"/><path d="m40 432h56v16h-56z"/></g><path d="m200 432v24h96v-32l-8-8-32-40-48 8z" fill="#396795"/><path d="m192 256v32l5.43 8.15 10.57 15.85h40l-10.16-23.7-13.84-32.3z" fill="#396795"/><path d="m248 312h-40l-8.8999-13.3501a56.10315 56.10315 0 0 1 32.8999-10.6499 56.39916 56.39916 0 0 1 5.84009.3z" fill="#26507a"/><path d="m248 328 40 64v24l-12.8-6.4a42.93249 42.93249 0 0 0 -38.4 0 42.9324 42.9324 0 0 0 -19.2 19.2l-1.6 3.2h-16l-8-72 8-24z" fill="#396795"/><path d="m192 256v32l5.42993 8.1499a43.38007 43.38007 0 0 0 2.57007-14.77978v-25.37012z" fill="#26507a"/><path d="m208 344a24 24 0 0 0 48 0 24.3549 24.3549 0 0 0 -.34009-4.03 23.99238 23.99238 0 0 0 -12.92991-17.43 23.72657 23.72657 0 0 0 -10.73-2.54 24.00765 24.00765 0 0 0 -23.28 18.17993c-.1499.6001-.28 1.2-.37988 1.82007a23.996 23.996 0 0 0 -.34012 4z" fill="#396795"/><path d="m185.41992 332.35986 15.54008 3.88014 7.76 1.93994a24.00765 24.00765 0 0 1 23.28-18.17994 23.72657 23.72657 0 0 1 10.73 2.54l3.58008-7.16016 7.15992-14.31978a48.03093 48.03093 0 0 0 -68.05 31.2998z" fill="#396795"/><path d="m208 344a24 24 0 0 0 48 0 24.3549 24.3549 0 0 0 -.34009-4.03 23.9918 23.9918 0 0 1 -47.31982.03 23.996 23.996 0 0 0 -.34009 4z" fill="#26507a"/><path d="m200.96 336.24 7.76 1.93994a24.00765 24.00765 0 0 1 23.28-18.17994 23.72657 23.72657 0 0 1 10.73 2.54l3.58008-7.16016a31.52834 31.52834 0 0 0 -14.31008-3.37984 31.93666 31.93666 0 0 0 -31.04 24.24z" fill="#26507a"/><path d="m200 432v16h20.95a7.985 7.985 0 0 0 7.15015-4.41992l3.80981-7.63013a26.947 26.947 0 0 1 36.14014-12.04l27.9499 13.98019v-13.89014l-8-8-12.8-6.3999a42.93239 42.93239 0 0 0 -57.59985 19.2l-1.60015 3.1999z" fill="#26507a"/><path d="m240 432h56v16h-56z" fill="#26507a"/><path d="m181.65686 306.34314a19.31364 19.31364 0 0 1 -13.65686 5.65686 19.31369 19.31369 0 0 1 -13.65684-5.65685 35.31371 35.31371 0 0 1 -10.34316-24.97057v-25.37258h48v25.37258a35.31371 35.31371 0 0 1 -10.34314 24.97056z" fill="#396795"/><path d="m208 344a24 24 0 1 0 34.73-21.46 23.72657 23.72657 0 0 0 -10.73-2.54 24.00765 24.00765 0 0 0 -23.28 18.17993 23.73342 23.73342 0 0 0 -.72 5.82007z" fill="#396795"/><path d="m312 488h-288l8-32h272z" fill="#2f4054"/><path d="m312 160v29.15991a34.84216 34.84216 0 0 1 -34.83984 34.84009h-21.16016v-64z" fill="#396795"/><path d="m256 192h8v32h-8z" fill="#26507a"/><path d="m120 64a32.00252 32.00252 0 1 1 -12.59009-25.43994 31.78347 31.78347 0 0 1 12.59009 25.43994z" fill="#2f4054"/><path d="m288 64a31.99875 31.99875 0 1 1 -32-32 31.77968 31.77968 0 0 1 32 32z" fill="#2f4054"/><path d="m120 64a31.95747 31.95747 0 0 1 -16 27.71v-45.01l.40991-1.23a42.68105 42.68105 0 0 1 3-6.90991 31.94622 31.94622 0 0 1 12.59009 25.43991z" fill="#262d43"/><path d="m240 46.7v45.01a31.99615 31.99615 0 0 1 -3.40991-53.1499 42.68105 42.68105 0 0 1 3 6.90991z" fill="#262d43"/><path d="m117.16992 77.16992a32.084 32.084 0 0 1 -13.16992 14.54008 32.0008 32.0008 0 0 1 -45.16992-14.54l1.85986-1.85986a38.62565 38.62565 0 0 1 42.09006-8.3702c.40991.16992.82007.3501 1.22.53a38.65856 38.65856 0 0 1 11.31006 7.84009z" fill="#c4d4e0"/><path d="m285.16992 77.16992a32.0121 32.0121 0 0 1 -58.33984 0l1.85986-1.85986a38.62847 38.62847 0 0 1 54.62012 0z" fill="#c4d4e0"/><path d="m115.31006 75.31006 1.85986 1.85986a32.084 32.084 0 0 1 -13.16992 14.54008v-24.24a38.65856 38.65856 0 0 1 11.31006 7.84006z" fill="#a6b2bc"/><path d="m240 67.47v24.24a32.084 32.084 0 0 1 -13.16992-14.54l1.85986-1.85986a38.65856 38.65856 0 0 1 11.31006-7.84014z" fill="#a6b2bc"/><path d="m256 72h-24v88h88v-24h-64z" fill="#eebe33"/><path d="m256 80h.00006a55.99994 55.99994 0 0 1 55.99994 55.99994v.00006h-56z" fill="#396795"/><path d="m208 48v40l-16 16h-32v-56z" fill="#26507a"/><path d="m160 72v-24l24 16 24-16a24 24 0 0 0 -24-24h-24a24 24 0 0 0 -24 24z" fill="#396795"/><path d="m136 48v32l24 24v-32z" fill="#c4d4e0"/><path d="m112 184v-24a24 24 0 0 1 24-24h16v24h24v24z" fill="#c4d4e0"/><path d="m152 136h128v32h-104v-8h-24z" fill="#2f4054"/><path d="m208 168h72v32h-72z" fill="#c4d4e0"/><path d="m208 168v48h-40v-32h8v-16z" fill="#262d43"/><path d="m280 144h24v16h-24z" fill="#262d43"/><path d="m280 176h24v16h-24z" fill="#262d43"/><path d="m168 216h40v32h-40z" fill="#c4d4e0"/><path d="m168 184v40h-96l40-40z" fill="#396795"/><path d="m123.32 184-40.01 40h-11.31l40-40z" fill="#26507a"/><path d="m72 224a63.46967 63.46967 0 0 1 -24.15533-63.22317l.15533-.77683h48l16 24z" fill="#396795"/><path d="m128 184h16v40h-16z" fill="#26507a"/><path d="m88 72h24v88h-88v-24h64z" fill="#eebe33"/><path d="m88 136h-56v-.00006a55.99994 55.99994 0 0 1 55.99994-55.99994z" fill="#396795"/><path d="m112 72h24v8l24 24h32l16-16v-16h24v32l-24 24h-64l-32-32z" fill="#396795"/><path d="m208 200h48a0 0 0 0 1 0 0v16a16 16 0 0 1 -16 16h-16a16 16 0 0 1 -16-16v-16a0 0 0 0 1 0 0z" fill="#396795"/><path d="m488 304v184h-160v-184l4.33984-11.57007a80.80544 80.80544 0 0 1 151.32032 0z" fill="#396795"/><path d="m328 304h160v32h-160z" fill="#c4d4e0"/><path d="m328 360h160v104h-160z" fill="#2d80b3"/><path d="m408 448a7.97772 7.97772 0 0 1 -5.65723-2.34277l-24-24a8.00235 8.00235 0 0 1 -2.34277-5.65723v-32a8.00039 8.00039 0 0 1 8-8h48a8.00039 8.00039 0 0 1 8 8v32a8.00235 8.00235 0 0 1 -2.34277 5.65723l-24 24a7.97772 7.97772 0 0 1 -5.65723 2.34277zm-16-35.31348 16 16 16-16v-20.68652h-32z" fill="#e44042"/><path d="m328 304h160v8h-160z" fill="#a6b2bc"/><path d="m488 304h-160l4.33984-11.57007a80.80913 80.80913 0 0 1 151.32032 0z" fill="#c4d4e0"/><path d="m461.87012 260.58008a143.18282 143.18282 0 0 1 -107.75 0 80.76883 80.76883 0 0 1 107.75 0z" fill="#396795"/><path d="m256 112-10.67 16-5.33 8h-24v-24z" fill="#2f4054"/><path d="m192 112v24h-24l-5.33-8-10.67-16z" fill="#2f4054"/><path d="m192 112h24v24h-24z" fill="#262d43"/><path d="m176 64h16a16 16 0 0 0 16-16l-24 16-24-16a16 16 0 0 0 16 16z" fill="#379ec3"/><path d="m208 344a24 24 0 0 0 48 0 24.3549 24.3549 0 0 0 -.34009-4.03 23.9918 23.9918 0 0 1 -47.31982.03 23.996 23.996 0 0 0 -.34009 4z" fill="#26507a"/><path d="m162.67 128h29.33v8h-24z" fill="#262d43"/><path d="m245.33 128-5.33 8h-24v-8z" fill="#262d43"/><path d="m192 128h24v8h-24z" fill="#1a1e38"/></g></svg>